<svg xmlns="http://www.w3.org/2000/svg" version="1.1" xmlns:xlink="http://www.w3.org/1999/xlink" xmlns:svgjs="http://svgjs.dev/svgjs" width="1000" height="1000" viewBox="0 0 1000 1000"><rect width="1000" height="1000" fill="#000000"></rect><g transform="matrix(0.7,0,0,0.7,149.57575771072982,425.48778053387264)"><svg viewBox="0 0 396 84" data-background-color="#000000" preserveAspectRatio="xMidYMid meet" height="212" width="1000" xmlns="http://www.w3.org/2000/svg" xmlns:xlink="http://www.w3.org/1999/xlink"><defs></defs><g id="tight-bounds" transform="matrix(1,0,0,1,0.2400000763557273,0.17672799969474795)"><svg viewBox="0 0 395.52 83.64654400061049" height="83.64654400061049" width="395.52"><g><svg viewBox="0 0 525.6857124447457 111.1746386440678" height="83.64654400061049" width="395.52"><g transform="matrix(1,0,0,1,0,15.364946440677969)"><svg viewBox="0 0 395.52 80.44474576271186" height="80.44474576271186" width="395.52"><g><svg viewBox="0 0 395.52 80.44474576271186" height="80.44474576271186" width="395.52"><g><svg viewBox="0 0 395.52 80.44474576271186" height="80.44474576271186" width="395.52"><g transform="matrix(1,0,0,1,0,0)"><svg width="395.52" viewBox="2.6500000953674316 -37.20000076293945 185.8400115966797 37.79999923706055" height="80.44474576271186" data-palette-color="#ffffff"><path d="M2.65-36.6L12.25-36.6 20.05-15.6Q20.6-14.1 20.9-12.6 21.2-11.1 21.5-9.55L21.5-9.55Q21.9-11.15 22.13-12.55 22.35-13.95 22.85-15.4L22.85-15.4 30.5-36.6 39.3-36.6 39.3-0.05 32.55-0.05 32.55-24.85Q32.55-25.75 32.65-26.68 32.75-27.6 32.8-28.45L32.8-28.45Q32.5-27.55 32.23-26.65 31.95-25.75 31.6-24.85L31.6-24.85 22.65 0 18.95 0 9.75-24.85Q9.4-25.75 9.13-26.65 8.85-27.55 8.55-28.45L8.55-28.45Q8.6-27.6 8.7-26.68 8.8-25.75 8.8-24.85L8.8-24.85 8.8-0.05 3.35-0.05 3.35-33.55 2.65-36.6ZM44.5-36.6L44.5-36.6 52.1-36.6 52.1 0 45.2 0 45.2-33.55Q45.2-33.6 45.02-34.3 44.85-35 44.7-35.75 44.55-36.5 44.5-36.6ZM58.6-33.55L57.95-36.6 65.55-36.6 65.55-4.95 79.9-4.95 79.9 0 58.6 0 58.6-33.55ZM84.29-33.55L83.64-36.6 91.24-36.6 91.24-4.95 105.59-4.95 105.59 0 84.29 0 84.29-33.55ZM110.04-33.55L109.29-36.6 132.29-36.6 132.29-31.65 116.89-31.65 116.89-21.3 128.69-21.3 128.69-16.35 116.89-16.35 116.89-4.95 132.29-4.95 132.29 0 110.04 0 110.04-33.55ZM137.44-33.55L136.69-36.6 149.24-36.6Q152.59-36.6 155.39-35.68 158.19-34.75 159.89-32.58 161.59-30.4 161.59-26.6L161.59-26.6Q161.59-24.5 160.49-22.55 159.39-20.6 157.61-19.23 155.84-17.85 153.79-17.35L153.79-17.35 164.99 0 157.19 0 147.04-16.3 144.29-16.3 144.29 0 137.44 0 137.44-33.55ZM148.59-31.6L144.29-31.6 144.29-21.2 147.49-21.2Q149.44-21.2 150.99-21.68 152.54-22.15 153.44-23.35 154.34-24.55 154.34-26.65L154.34-26.65Q154.34-28.3 153.54-29.4 152.74-30.5 151.44-31.05 150.14-31.6 148.59-31.6L148.59-31.6ZM177.59-37.2L177.59-37.2Q180.39-37.2 183.06-36.43 185.74-35.65 187.89-34.2L187.89-34.2 184.44-29.9Q183.09-31.1 181.19-31.75 179.29-32.4 177.54-32.4L177.54-32.4Q175.59-32.4 173.99-31.38 172.39-30.35 172.39-28.2L172.39-28.2Q172.39-26.75 173.11-25.7 173.84-24.65 175.06-23.88 176.29-23.1 177.79-22.35L177.79-22.35Q179.54-21.5 181.41-20.6 183.29-19.7 184.89-18.43 186.49-17.15 187.49-15.3 188.49-13.45 188.49-10.75L188.49-10.75Q188.49-7.1 186.69-4.55 184.89-2 181.96-0.7 179.04 0.6 175.64 0.6L175.64 0.6Q172.59 0.6 169.56-0.08 166.54-0.75 163.89-2.3L163.89-2.3 166.24-7.85Q167.99-6.25 170.29-5.23 172.59-4.2 174.99-4.2L174.99-4.2Q176.59-4.2 177.99-4.8 179.39-5.4 180.29-6.58 181.19-7.75 181.19-9.5L181.19-9.5Q181.19-11.3 180.19-12.48 179.19-13.65 177.59-14.55 175.99-15.45 174.14-16.3L174.14-16.3Q172.49-17.05 170.89-17.93 169.29-18.8 167.99-19.95 166.69-21.1 165.89-22.78 165.09-24.45 165.09-26.75L165.09-26.75Q165.09-30.4 166.89-32.7 168.69-35 171.54-36.1 174.39-37.2 177.59-37.2Z" opacity="1" transform="matrix(1,0,0,1,0,0)" fill="#ffffff" class="undefined-text-0" data-fill-palette-color="primary" id="text-0"></path></svg></g></svg></g></svg></g></svg></g><g transform="matrix(1,0,0,1,414.51107380067793,0)"><svg viewBox="0 0 111.1746386440678 111.1746386440678" height="111.1746386440678" width="111.1746386440678"><g data-palette-color="#ffffff"><rect width="30.387734562711866" height="111.1746386440678" fill="#ffffff" stroke="transparent" data-fill-palette-color="accent" x="0" fill-opacity="1"></rect><rect width="30.387734562711866" height="111.1746386440678" fill="#ffffff" stroke="transparent" data-fill-palette-color="accent" x="37.058212881355935" fill-opacity="0.75"></rect><rect width="30.387734562711866" height="111.1746386440678" fill="#ffffff" stroke="transparent" data-fill-palette-color="accent" x="74.11642576271187" fill-opacity="0.5"></rect></g></svg></g></svg></g></svg><rect width="395.52" height="83.64654400061049" fill="none" stroke="none" visibility="hidden"></rect></g></svg></g></svg>